<svg width="51" height="72" viewBox="0 0 51 72" fill="none" xmlns="http://www.w3.org/2000/svg">
<g clip-path="url(#clip0_7_66)">
<path d="M25.469 71.8181L4.71391 66.0498L0.0887451 14.1139H50.9114L46.2813 66.0416L25.469 71.8181Z" fill="#264DE4"/>
<path d="M42.3174 62.7351L46.2741 18.3605H25.5V67.4028L42.3174 62.7351Z" fill="#2965F1"/>
<path d="M10.6919 37.6227L11.2621 43.9924H25.5001V37.6227H10.6919Z" fill="#EBEBEB"/>
<path d="M9.54602 24.7303L10.1244 31.1H25.5001V24.7303H9.54602Z" fill="#EBEBEB"/>
<path d="M25.5001 54.1656L25.4722 54.173L18.3863 52.2575L17.9333 47.1773H11.5464L12.4378 57.1787L25.4708 60.8009L25.5001 60.7928V54.1656Z" fill="#EBEBEB"/>
<path d="M12.0496 0H19.7556V3.2262H15.2721V6.45241H19.7556V9.67861H12.0496V0Z" fill="white"/>
<path d="M21.2968 0H29.0028V2.80539H24.5193V3.36647H29.0028V9.81888H21.2968V6.87322H25.7803V6.31214H21.2968V0Z" fill="white"/>
<path d="M30.5441 0H38.2501V2.80539H33.7666V3.36647H38.2501V9.81888H30.5441V6.87322H35.0276V6.31214H30.5441V0Z" fill="white"/>
<path d="M40.2675 37.6227L41.4161 24.7303H25.478V31.1H34.4434L33.8644 37.6227H25.478V43.9924H33.3127L32.5742 52.2534L25.478 54.1709V60.7978L38.5214 57.1787L38.6171 56.1026L40.1122 39.3332L40.2675 37.6227Z" fill="white"/>
</g>
<defs>
<clipPath id="clip0_7_66">
<rect width="51" height="72" fill="white"/>
</clipPath>
</defs>
</svg>
