<svg width="53" height="74" viewBox="0 0 53 74" fill="none" xmlns="http://www.w3.org/2000/svg">
<g clip-path="url(#clip0_7_47)">
<path d="M52.908 14.506L48.0963 67.8761L26.4678 73.813L4.89883 67.8845L0.0922852 14.506H52.908Z" fill="#E44D26"/>
<path d="M26.5 69.2751L43.9769 64.4777L48.0888 18.8705H26.5V69.2751Z" fill="#F16529"/>
<path d="M17.1465 31.9639H26.5001V25.4172H9.92041L10.0787 27.1736L11.7038 45.2144H26.5001V38.6678H17.7507L17.1465 31.9639Z" fill="#EBEBEB"/>
<path d="M18.6366 48.4878H11.9993L12.9256 58.767L26.4697 62.4898L26.5002 62.4814V55.6702L26.4712 55.6778L19.1074 53.7091L18.6366 48.4878Z" fill="#EBEBEB"/>
<path d="M5.00635 0H8.36646V3.28699H11.4402V0H14.8004V9.9538H11.4403V6.62068H8.36661V9.9538H5.00649V0H5.00635Z" fill="white"/>
<path d="M19.2191 3.30083H16.261V0H25.5389V3.30083H22.5795V9.9538H19.2192V3.30083H19.2191Z" fill="white"/>
<path d="M27.0112 0H30.5149L32.6701 3.49747L34.8232 0H38.3282V9.9538H34.9819V5.02015L32.6701 8.55928H32.6123L30.299 5.02015V9.9538H27.0112V0Z" fill="white"/>
<path d="M40.0005 0H43.3616V6.66364H48.0869V9.9538H40.0005V0Z" fill="white"/>
<path d="M26.4773 45.2144H34.6192L33.8517 53.7049L26.4773 55.6756V62.4866L40.0322 58.767L40.1316 57.6609L41.6854 40.4257L41.8467 38.6678H26.4773V45.2144Z" fill="white"/>
<path d="M26.4773 31.9479V31.9639H42.4483L42.581 30.4924L42.8822 27.1736L43.0404 25.4172H26.4773V31.9479Z" fill="white"/>
</g>
<defs>
<clipPath id="clip0_7_47">
<rect width="53" height="74" fill="white"/>
</clipPath>
</defs>
</svg>
